<svg width="16" height="16" viewBox="0 0 16 16" fill="none" xmlns="http://www.w3.org/2000/svg">
<path fill-rule="evenodd" clip-rule="evenodd" d="M8 2.08325C7.31486 2.08325 6.65778 2.35542 6.17331 2.83989C5.68884 3.32436 5.41667 3.98144 5.41667 4.66659V6.58325H10.5833V4.66659C10.5833 3.98144 10.3112 3.32436 9.82669 2.83989C9.34222 2.35542 8.68514 2.08325 8 2.08325ZM12.0833 6.58325V4.66659C12.0833 3.58362 11.6531 2.54501 10.8874 1.77923C10.1216 1.01346 9.08297 0.583252 8 0.583252C6.91703 0.583252 5.87842 1.01346 5.11265 1.77923C4.34687 2.54501 3.91667 3.58362 3.91667 4.66659V6.58325H3.33333C2.18274 6.58325 1.25 7.51599 1.25 8.66659V13.3333C1.25 14.4838 2.18274 15.4166 3.33333 15.4166H12.6667C13.8173 15.4166 14.75 14.4838 14.75 13.3333V8.66659C14.75 7.51599 13.8173 6.58325 12.6667 6.58325H12.0833ZM3.33333 8.08325C3.01117 8.08325 2.75 8.34442 2.75 8.66659V13.3333C2.75 13.6554 3.01117 13.9166 3.33333 13.9166H12.6667C12.9888 13.9166 13.25 13.6554 13.25 13.3333V8.66659C13.25 8.34442 12.9888 8.08325 12.6667 8.08325H3.33333Z" fill="#0D2159"/>
</svg>
