<svg width="19" height="14" viewBox="0 0 19 14" fill="none" xmlns="http://www.w3.org/2000/svg">
<rect y="0.5" width="19" height="13" rx="2" fill="#5378F6"/>
<path d="M5.33 9.5V7.239L5.288 6.378H5.358L5.953 7.26L7.682 9.5H8.802V4.81H7.752V7.071L7.801 8.016H7.724L7.08 7.029L5.4 4.81H4.28V9.5H5.33ZM11.5711 9.57C12.5861 9.57 13.0761 9.108 13.2371 8.492H13.2931V9.5H14.2661V7.022H11.6271V7.799H13.2161C13.1881 8.394 12.8591 8.562 11.7811 8.562C10.7521 8.562 10.3671 8.198 10.3671 7.155C10.3671 6.112 10.7661 5.748 11.8301 5.748C12.7331 5.748 13.0901 6.007 13.0901 6.553V6.609H14.2591V6.553C14.2591 5.426 13.3281 4.74 11.8581 4.74C10.2481 4.74 9.2541 5.692 9.2541 7.155C9.2541 8.618 10.1361 9.57 11.5711 9.57Z" fill="white"/>
</svg>
