<svg width="24" height="25" viewBox="0 0 24 25" fill="none" xmlns="http://www.w3.org/2000/svg">
<path d="M2.99902 5.64465V5.14465H2.49902V5.64465H2.99902ZM2.99902 13.6387H2.49902V14.1387H2.99902V13.6387ZM20.9899 10.6477L20.4944 10.5804L20.4934 10.5887L20.9899 10.6477ZM19.696 9.44862L19.7174 8.94908L19.7163 8.94903L19.696 9.44862ZM18.7846 9.39152V8.89152L18.7497 9.8903L18.7846 9.39152ZM18.8634 9.3801V9.8801H18.8994L18.9351 9.87492L18.8634 9.3801ZM20.4498 8.15814L20.9464 8.21719L20.9472 8.20884L20.4498 8.15814ZM19.1334 6.97045L19.1832 6.47285L19.1739 6.47209L19.1334 6.97045ZM18.2445 6.90193L18.0905 6.42626L18.2071 7.40052L18.2445 6.90193ZM19.2234 5.83986L18.7245 5.80596L18.7243 5.81093L19.2234 5.83986ZM17.5357 4.59506L17.5784 4.09686L17.5732 4.09647L17.5357 4.59506ZM16.6131 4.53796L16.5691 5.03602L16.5911 5.03796H16.6131V4.53796ZM15.9155 4.5037L15.9422 4.00441L15.9329 4.00392L15.9236 4.00377L15.9155 4.5037ZM7.49954 6.22814L7.23124 5.80622L6.99954 5.95356V6.22814H7.49954ZM7.49954 13.0802H6.99954V13.3605L7.23859 13.5067L7.49954 13.0802ZM12.2363 19.3727L12.7153 19.5167L12.7175 19.5085L12.2363 19.3727ZM13.339 20.4919L13.3917 20.9891L13.395 20.9887L13.339 20.4919ZM14.9142 18.4591L14.4145 18.4394L14.4144 18.4421L14.9142 18.4591ZM14.3516 15.1358L13.8577 15.2137L13.8659 15.2656L13.8847 15.3147L14.3516 15.1358ZM14.7679 14.5306L14.7369 14.0314L14.7258 14.0324L14.7679 14.5306ZM16.5569 14.4392V13.9392H16.5463L16.5357 13.9397L16.5569 14.4392ZM17.4007 14.4164V13.9164H17.3901L17.3796 13.9168L17.4007 14.4164ZM18.6834 14.3136L18.7444 14.8099L18.7481 14.8094L18.6834 14.3136ZM18.9984 11.9154L18.8989 12.4054L18.9201 12.4097L18.9416 12.4121L18.9984 11.9154ZM18.8184 11.8925L18.7886 11.3934L18.7189 12.3825L18.8184 11.8925ZM19.3697 11.8354L19.3136 11.3385L19.3067 11.3394L19.3697 11.8354ZM5.24929 5.14465H2.99902V6.14465H5.24929V5.14465ZM2.49902 5.64465V13.6387H3.49902V5.64465H2.49902ZM2.99902 14.1387H5.24929V13.1387H2.99902V14.1387ZM5.24929 14.1387C6.15125 14.1387 6.87442 13.3939 6.87442 12.4967H5.87442C5.87442 12.8557 5.58497 13.1387 5.24929 13.1387V14.1387ZM6.87442 12.4967V6.78666H5.87442V12.4967H6.87442ZM6.87442 6.78666C6.87442 5.88946 6.15125 5.14465 5.24929 5.14465V6.14465C5.58497 6.14465 5.87442 6.42765 5.87442 6.78666H6.87442ZM21.4853 10.7151C21.5546 10.2055 21.3573 9.75484 21.0119 9.44202C20.6754 9.1373 20.2112 8.97026 19.7174 8.94908L19.6745 9.94816C19.9796 9.96124 20.2073 10.0626 20.3406 10.1832C20.4649 10.2958 20.5152 10.4276 20.4944 10.5804L21.4853 10.7151ZM19.7163 8.94903C19.4443 8.93799 19.1504 8.9159 18.8195 8.89274L18.7497 9.8903C19.0714 9.91282 19.385 9.93641 19.6757 9.94821L19.7163 8.94903ZM18.7846 9.89152C18.808 9.89152 18.8281 9.89007 18.8433 9.88854C18.8588 9.88699 18.8722 9.88507 18.8824 9.88343C18.9011 9.88043 18.9186 9.87681 18.9235 9.87581C18.9326 9.87395 18.9292 9.87472 18.9239 9.87558C18.9203 9.87615 18.9134 9.87718 18.9042 9.8781C18.8952 9.879 18.8811 9.8801 18.8634 9.8801V8.8801C18.84 8.8801 18.8199 8.88155 18.8047 8.88307C18.7892 8.88462 18.7758 8.88654 18.7656 8.88818C18.7469 8.89118 18.7294 8.89481 18.7245 8.8958C18.7154 8.89766 18.7187 8.89689 18.7241 8.89603C18.7277 8.89546 18.7345 8.89443 18.7437 8.89351C18.7528 8.89261 18.7669 8.89152 18.7846 8.89152V9.89152ZM18.9351 9.87492C19.3932 9.80851 19.8499 9.64406 20.2153 9.37989C20.5823 9.11462 20.886 8.72451 20.9463 8.21718L19.9533 8.09911C19.9349 8.25414 19.8391 8.41791 19.6295 8.56947C19.4183 8.72214 19.1212 8.83749 18.7916 8.88527L18.9351 9.87492ZM20.9472 8.20884C20.9992 7.69882 20.7913 7.26636 20.4423 6.96658C20.1068 6.67849 19.6547 6.52011 19.1832 6.47293L19.0836 7.46796C19.411 7.50072 19.6508 7.60501 19.7907 7.72519C19.917 7.83368 19.9679 7.9551 19.9524 8.10745L20.9472 8.20884ZM19.1739 6.47209C18.8908 6.44911 18.5855 6.42615 18.282 6.40334L18.2071 7.40052C18.5112 7.42339 18.8134 7.44611 19.0929 7.46881L19.1739 6.47209ZM18.3986 7.37759C18.7041 7.27865 19.0201 7.12724 19.27 6.88177C19.531 6.62538 19.6984 6.28664 19.7226 5.86878L18.7243 5.81093C18.7147 5.9755 18.657 6.08214 18.5693 6.16836C18.4704 6.26549 18.3138 6.35391 18.0905 6.42626L18.3986 7.37759ZM19.7223 5.87375C19.7627 5.27827 19.3616 4.83918 18.9746 4.57955C18.5718 4.30933 18.0563 4.13788 17.5784 4.09689L17.493 5.09323C17.814 5.12077 18.1649 5.24053 18.4175 5.40999C18.6858 5.59003 18.7291 5.73908 18.7246 5.80596L19.7223 5.87375ZM17.5732 4.09647C17.2766 4.07417 16.9945 4.05035 16.7374 4.03849L16.6913 5.03743C16.9293 5.04841 17.1873 5.07028 17.4982 5.09365L17.5732 4.09647ZM16.7144 4.03796C16.7143 4.03796 16.7142 4.03796 16.7142 4.03796C16.7141 4.03796 16.714 4.03796 16.714 4.03796C16.7139 4.03796 16.7138 4.03796 16.7138 4.03796C16.7137 4.03796 16.7136 4.03796 16.7136 4.03796C16.7135 4.03796 16.7134 4.03796 16.7134 4.03796C16.7133 4.03796 16.7132 4.03796 16.7132 4.03796C16.7131 4.03796 16.7131 4.03796 16.713 4.03796C16.7129 4.03796 16.7129 4.03796 16.7128 4.03796C16.7127 4.03796 16.7127 4.03796 16.7126 4.03796C16.7125 4.03796 16.7125 4.03796 16.7124 4.03796C16.7123 4.03796 16.7123 4.03796 16.7122 4.03796C16.7121 4.03796 16.7121 4.03796 16.712 4.03796C16.7119 4.03796 16.7119 4.03796 16.7118 4.03796C16.7117 4.03796 16.7117 4.03796 16.7116 4.03796C16.7115 4.03796 16.7115 4.03796 16.7114 4.03796C16.7113 4.03796 16.7113 4.03796 16.7112 4.03796C16.7111 4.03796 16.7111 4.03796 16.711 4.03796C16.7109 4.03796 16.7109 4.03796 16.7108 4.03796C16.7107 4.03796 16.7107 4.03796 16.7106 4.03796C16.7105 4.03796 16.7105 4.03796 16.7104 4.03796C16.7103 4.03796 16.7103 4.03796 16.7102 4.03796C16.7102 4.03796 16.7101 4.03796 16.71 4.03796C16.71 4.03796 16.7099 4.03796 16.7098 4.03796C16.7098 4.03796 16.7097 4.03796 16.7096 4.03796C16.7096 4.03796 16.7095 4.03796 16.7094 4.03796C16.7094 4.03796 16.7093 4.03796 16.7092 4.03796C16.7092 4.03796 16.7091 4.03796 16.709 4.03796C16.709 4.03796 16.7089 4.03796 16.7088 4.03796C16.7088 4.03796 16.7087 4.03796 16.7086 4.03796C16.7086 4.03796 16.7085 4.03796 16.7084 4.03796C16.7084 4.03796 16.7083 4.03796 16.7082 4.03796C16.7082 4.03796 16.7081 4.03796 16.708 4.03796C16.708 4.03796 16.7079 4.03796 16.7078 4.03796C16.7078 4.03796 16.7077 4.03796 16.7076 4.03796C16.7076 4.03796 16.7075 4.03796 16.7074 4.03796C16.7074 4.03796 16.7073 4.03796 16.7072 4.03796C16.7072 4.03796 16.7071 4.03796 16.7071 4.03796C16.707 4.03796 16.7069 4.03796 16.7069 4.03796C16.7068 4.03796 16.7067 4.03796 16.7067 4.03796C16.7066 4.03796 16.7065 4.03796 16.7065 4.03796C16.7064 4.03796 16.7063 4.03796 16.7063 4.03796C16.7062 4.03796 16.7061 4.03796 16.7061 4.03796C16.706 4.03796 16.7059 4.03796 16.7059 4.03796C16.7058 4.03796 16.7057 4.03796 16.7057 4.03796C16.7056 4.03796 16.7055 4.03796 16.7055 4.03796C16.7054 4.03796 16.7053 4.03796 16.7053 4.03796C16.7052 4.03796 16.7051 4.03796 16.7051 4.03796C16.705 4.03796 16.7049 4.03796 16.7049 4.03796C16.7048 4.03796 16.7047 4.03796 16.7047 4.03796C16.7046 4.03796 16.7045 4.03796 16.7045 4.03796C16.7044 4.03796 16.7043 4.03796 16.7043 4.03796C16.7042 4.03796 16.7042 4.03796 16.7041 4.03796C16.704 4.03796 16.704 4.03796 16.7039 4.03796C16.7038 4.03796 16.7038 4.03796 16.7037 4.03796C16.7036 4.03796 16.7036 4.03796 16.7035 4.03796C16.7034 4.03796 16.7034 4.03796 16.7033 4.03796C16.7032 4.03796 16.7032 4.03796 16.7031 4.03796C16.703 4.03796 16.703 4.03796 16.7029 4.03796C16.7028 4.03796 16.7028 4.03796 16.7027 4.03796C16.7026 4.03796 16.7026 4.03796 16.7025 4.03796C16.7024 4.03796 16.7024 4.03796 16.7023 4.03796C16.7022 4.03796 16.7022 4.03796 16.7021 4.03796C16.702 4.03796 16.702 4.03796 16.7019 4.03796C16.7018 4.03796 16.7018 4.03796 16.7017 4.03796C16.7016 4.03796 16.7016 4.03796 16.7015 4.03796C16.7014 4.03796 16.7014 4.03796 16.7013 4.03796C16.7013 4.03796 16.7012 4.03796 16.7011 4.03796C16.7011 4.03796 16.701 4.03796 16.7009 4.03796C16.7009 4.03796 16.7008 4.03796 16.7007 4.03796C16.7007 4.03796 16.7006 4.03796 16.7005 4.03796C16.7005 4.03796 16.7004 4.03796 16.7003 4.03796C16.7003 4.03796 16.7002 4.03796 16.7001 4.03796C16.7001 4.03796 16.7 4.03796 16.6999 4.03796C16.6999 4.03796 16.6998 4.03796 16.6997 4.03796C16.6997 4.03796 16.6996 4.03796 16.6995 4.03796C16.6995 4.03796 16.6994 4.03796 16.6993 4.03796C16.6993 4.03796 16.6992 4.03796 16.6991 4.03796C16.6991 4.03796 16.699 4.03796 16.6989 4.03796C16.6989 4.03796 16.6988 4.03796 16.6987 4.03796C16.6987 4.03796 16.6986 4.03796 16.6985 4.03796C16.6985 4.03796 16.6984 4.03796 16.6983 4.03796C16.6983 4.03796 16.6982 4.03796 16.6982 4.03796C16.6981 4.03796 16.698 4.03796 16.698 4.03796C16.6979 4.03796 16.6978 4.03796 16.6978 4.03796C16.6977 4.03796 16.6976 4.03796 16.6976 4.03796C16.6975 4.03796 16.6974 4.03796 16.6974 4.03796C16.6973 4.03796 16.6972 4.03796 16.6972 4.03796C16.6971 4.03796 16.697 4.03796 16.697 4.03796C16.6969 4.03796 16.6968 4.03796 16.6968 4.03796C16.6967 4.03796 16.6966 4.03796 16.6966 4.03796C16.6965 4.03796 16.6964 4.03796 16.6964 4.03796C16.6963 4.03796 16.6962 4.03796 16.6962 4.03796C16.6961 4.03796 16.696 4.03796 16.696 4.03796C16.6959 4.03796 16.6958 4.03796 16.6958 4.03796C16.6957 4.03796 16.6956 4.03796 16.6956 4.03796C16.6955 4.03796 16.6954 4.03796 16.6954 4.03796C16.6953 4.03796 16.6953 4.03796 16.6952 4.03796C16.6951 4.03796 16.6951 4.03796 16.695 4.03796C16.6949 4.03796 16.6949 4.03796 16.6948 4.03796C16.6947 4.03796 16.6947 4.03796 16.6946 4.03796C16.6945 4.03796 16.6945 4.03796 16.6944 4.03796C16.6943 4.03796 16.6943 4.03796 16.6942 4.03796C16.6941 4.03796 16.6941 4.03796 16.694 4.03796C16.6939 4.03796 16.6939 4.03796 16.6938 4.03796C16.6937 4.03796 16.6937 4.03796 16.6936 4.03796C16.6935 4.03796 16.6935 4.03796 16.6934 4.03796C16.6933 4.03796 16.6933 4.03796 16.6932 4.03796C16.6931 4.03796 16.6931 4.03796 16.693 4.03796C16.6929 4.03796 16.6929 4.03796 16.6928 4.03796C16.6927 4.03796 16.6927 4.03796 16.6926 4.03796C16.6925 4.03796 16.6925 4.03796 16.6924 4.03796C16.6924 4.03796 16.6923 4.03796 16.6922 4.03796C16.6922 4.03796 16.6921 4.03796 16.692 4.03796C16.692 4.03796 16.6919 4.03796 16.6918 4.03796C16.6918 4.03796 16.6917 4.03796 16.6916 4.03796C16.6916 4.03796 16.6915 4.03796 16.6914 4.03796C16.6914 4.03796 16.6913 4.03796 16.6912 4.03796C16.6912 4.03796 16.6911 4.03796 16.691 4.03796C16.691 4.03796 16.6909 4.03796 16.6908 4.03796C16.6908 4.03796 16.6907 4.03796 16.6906 4.03796C16.6906 4.03796 16.6905 4.03796 16.6904 4.03796C16.6904 4.03796 16.6903 4.03796 16.6902 4.03796C16.6902 4.03796 16.6901 4.03796 16.69 4.03796C16.69 4.03796 16.6899 4.03796 16.6898 4.03796C16.6898 4.03796 16.6897 4.03796 16.6896 4.03796C16.6896 4.03796 16.6895 4.03796 16.6895 4.03796C16.6894 4.03796 16.6893 4.03796 16.6893 4.03796C16.6892 4.03796 16.6891 4.03796 16.6891 4.03796C16.689 4.03796 16.6889 4.03796 16.6889 4.03796C16.6888 4.03796 16.6887 4.03796 16.6887 4.03796C16.6886 4.03796 16.6885 4.03796 16.6885 4.03796C16.6884 4.03796 16.6883 4.03796 16.6883 4.03796C16.6882 4.03796 16.6881 4.03796 16.6881 4.03796C16.688 4.03796 16.6879 4.03796 16.6879 4.03796C16.6878 4.03796 16.6877 4.03796 16.6877 4.03796C16.6876 4.03796 16.6875 4.03796 16.6875 4.03796C16.6874 4.03796 16.6873 4.03796 16.6873 4.03796C16.6872 4.03796 16.6871 4.03796 16.6871 4.03796C16.687 4.03796 16.6869 4.03796 16.6869 4.03796C16.6868 4.03796 16.6867 4.03796 16.6867 4.03796C16.6866 4.03796 16.6865 4.03796 16.6865 4.03796C16.6864 4.03796 16.6864 4.03796 16.6863 4.03796C16.6862 4.03796 16.6862 4.03796 16.6861 4.03796C16.686 4.03796 16.686 4.03796 16.6859 4.03796C16.6858 4.03796 16.6858 4.03796 16.6857 4.03796C16.6856 4.03796 16.6856 4.03796 16.6855 4.03796C16.6854 4.03796 16.6854 4.03796 16.6853 4.03796C16.6852 4.03796 16.6852 4.03796 16.6851 4.03796C16.685 4.03796 16.685 4.03796 16.6849 4.03796C16.6848 4.03796 16.6848 4.03796 16.6847 4.03796C16.6846 4.03796 16.6846 4.03796 16.6845 4.03796C16.6844 4.03796 16.6844 4.03796 16.6843 4.03796C16.6842 4.03796 16.6842 4.03796 16.6841 4.03796C16.684 4.03796 16.684 4.03796 16.6839 4.03796C16.6838 4.03796 16.6838 4.03796 16.6837 4.03796C16.6836 4.03796 16.6836 4.03796 16.6835 4.03796C16.6835 4.03796 16.6834 4.03796 16.6833 4.03796C16.6833 4.03796 16.6832 4.03796 16.6831 4.03796C16.6831 4.03796 16.683 4.03796 16.6829 4.03796C16.6829 4.03796 16.6828 4.03796 16.6827 4.03796C16.6827 4.03796 16.6826 4.03796 16.6825 4.03796C16.6825 4.03796 16.6824 4.03796 16.6823 4.03796C16.6823 4.03796 16.6822 4.03796 16.6821 4.03796C16.6821 4.03796 16.682 4.03796 16.6819 4.03796C16.6819 4.03796 16.6818 4.03796 16.6817 4.03796C16.6817 4.03796 16.6816 4.03796 16.6815 4.03796C16.6815 4.03796 16.6814 4.03796 16.6813 4.03796C16.6813 4.03796 16.6812 4.03796 16.6811 4.03796C16.6811 4.03796 16.681 4.03796 16.6809 4.03796C16.6809 4.03796 16.6808 4.03796 16.6807 4.03796C16.6807 4.03796 16.6806 4.03796 16.6805 4.03796C16.6805 4.03796 16.6804 4.03796 16.6804 4.03796C16.6803 4.03796 16.6802 4.03796 16.6802 4.03796C16.6801 4.03796 16.68 4.03796 16.68 4.03796C16.6799 4.03796 16.6798 4.03796 16.6798 4.03796C16.6797 4.03796 16.6796 4.03796 16.6796 4.03796C16.6795 4.03796 16.6794 4.03796 16.6794 4.03796C16.6793 4.03796 16.6792 4.03796 16.6792 4.03796C16.6791 4.03796 16.679 4.03796 16.679 4.03796C16.6789 4.03796 16.6788 4.03796 16.6788 4.03796C16.6787 4.03796 16.6786 4.03796 16.6786 4.03796C16.6785 4.03796 16.6784 4.03796 16.6784 4.03796C16.6783 4.03796 16.6782 4.03796 16.6782 4.03796C16.6781 4.03796 16.678 4.03796 16.678 4.03796C16.6779 4.03796 16.6778 4.03796 16.6778 4.03796C16.6777 4.03796 16.6776 4.03796 16.6776 4.03796C16.6775 4.03796 16.6775 4.03796 16.6774 4.03796C16.6773 4.03796 16.6773 4.03796 16.6772 4.03796C16.6771 4.03796 16.6771 4.03796 16.677 4.03796C16.6769 4.03796 16.6769 4.03796 16.6768 4.03796C16.6767 4.03796 16.6767 4.03796 16.6766 4.03796C16.6765 4.03796 16.6765 4.03796 16.6764 4.03796C16.6763 4.03796 16.6763 4.03796 16.6762 4.03796C16.6761 4.03796 16.6761 4.03796 16.676 4.03796C16.6759 4.03796 16.6759 4.03796 16.6758 4.03796C16.6757 4.03796 16.6757 4.03796 16.6756 4.03796C16.6755 4.03796 16.6755 4.03796 16.6754 4.03796C16.6753 4.03796 16.6753 4.03796 16.6752 4.03796C16.6751 4.03796 16.6751 4.03796 16.675 4.03796C16.6749 4.03796 16.6749 4.03796 16.6748 4.03796C16.6747 4.03796 16.6747 4.03796 16.6746 4.03796C16.6746 4.03796 16.6745 4.03796 16.6744 4.03796C16.6744 4.03796 16.6743 4.03796 16.6742 4.03796C16.6742 4.03796 16.6741 4.03796 16.674 4.03796C16.674 4.03796 16.6739 4.03796 16.6738 4.03796C16.6738 4.03796 16.6737 4.03796 16.6736 4.03796C16.6736 4.03796 16.6735 4.03796 16.6734 4.03796C16.6734 4.03796 16.6733 4.03796 16.6732 4.03796C16.6732 4.03796 16.6731 4.03796 16.673 4.03796C16.673 4.03796 16.6729 4.03796 16.6728 4.03796C16.6728 4.03796 16.6727 4.03796 16.6726 4.03796C16.6726 4.03796 16.6725 4.03796 16.6724 4.03796C16.6724 4.03796 16.6723 4.03796 16.6722 4.03796C16.6722 4.03796 16.6721 4.03796 16.672 4.03796C16.672 4.03796 16.6719 4.03796 16.6718 4.03796C16.6718 4.03796 16.6717 4.03796 16.6716 4.03796C16.6716 4.03796 16.6715 4.03796 16.6715 4.03796C16.6714 4.03796 16.6713 4.03796 16.6713 4.03796C16.6712 4.03796 16.6711 4.03796 16.6711 4.03796C16.671 4.03796 16.6709 4.03796 16.6709 4.03796C16.6708 4.03796 16.6707 4.03796 16.6707 4.03796C16.6706 4.03796 16.6705 4.03796 16.6705 4.03796C16.6704 4.03796 16.6703 4.03796 16.6703 4.03796C16.6702 4.03796 16.6701 4.03796 16.6701 4.03796C16.67 4.03796 16.6699 4.03796 16.6699 4.03796C16.6698 4.03796 16.6697 4.03796 16.6697 4.03796C16.6696 4.03796 16.6695 4.03796 16.6695 4.03796C16.6694 4.03796 16.6693 4.03796 16.6693 4.03796C16.6692 4.03796 16.6691 4.03796 16.6691 4.03796C16.669 4.03796 16.6689 4.03796 16.6689 4.03796C16.6688 4.03796 16.6687 4.03796 16.6687 4.03796C16.6686 4.03796 16.6686 4.03796 16.6685 4.03796C16.6684 4.03796 16.6684 4.03796 16.6683 4.03796C16.6682 4.03796 16.6682 4.03796 16.6681 4.03796C16.668 4.03796 16.668 4.03796 16.6679 4.03796C16.6678 4.03796 16.6678 4.03796 16.6677 4.03796C16.6676 4.03796 16.6676 4.03796 16.6675 4.03796C16.6674 4.03796 16.6674 4.03796 16.6673 4.03796C16.6672 4.03796 16.6672 4.03796 16.6671 4.03796C16.667 4.03796 16.667 4.03796 16.6669 4.03796C16.6668 4.03796 16.6668 4.03796 16.6667 4.03796C16.6666 4.03796 16.6666 4.03796 16.6665 4.03796C16.6664 4.03796 16.6664 4.03796 16.6663 4.03796C16.6662 4.03796 16.6662 4.03796 16.6661 4.03796C16.666 4.03796 16.666 4.03796 16.6659 4.03796C16.6658 4.03796 16.6658 4.03796 16.6657 4.03796C16.6657 4.03796 16.6656 4.03796 16.6655 4.03796C16.6655 4.03796 16.6654 4.03796 16.6653 4.03796C16.6653 4.03796 16.6652 4.03796 16.6651 4.03796C16.6651 4.03796 16.665 4.03796 16.6649 4.03796C16.6649 4.03796 16.6648 4.03796 16.6647 4.03796C16.6647 4.03796 16.6646 4.03796 16.6645 4.03796C16.6645 4.03796 16.6644 4.03796 16.6643 4.03796C16.6643 4.03796 16.6642 4.03796 16.6641 4.03796C16.6641 4.03796 16.664 4.03796 16.6639 4.03796C16.6639 4.03796 16.6638 4.03796 16.6637 4.03796C16.6637 4.03796 16.6636 4.03796 16.6635 4.03796C16.6635 4.03796 16.6634 4.03796 16.6633 4.03796C16.6633 4.03796 16.6632 4.03796 16.6631 4.03796C16.6631 4.03796 16.663 4.03796 16.6629 4.03796C16.6629 4.03796 16.6628 4.03796 16.6628 4.03796C16.6627 4.03796 16.6626 4.03796 16.6626 4.03796C16.6625 4.03796 16.6624 4.03796 16.6624 4.03796C16.6623 4.03796 16.6622 4.03796 16.6622 4.03796C16.6621 4.03796 16.662 4.03796 16.662 4.03796C16.6619 4.03796 16.6618 4.03796 16.6618 4.03796C16.6617 4.03796 16.6616 4.03796 16.6616 4.03796C16.6615 4.03796 16.6614 4.03796 16.6614 4.03796C16.6613 4.03796 16.6612 4.03796 16.6612 4.03796C16.6611 4.03796 16.661 4.03796 16.661 4.03796C16.6609 4.03796 16.6608 4.03796 16.6608 4.03796C16.6607 4.03796 16.6606 4.03796 16.6606 4.03796C16.6605 4.03796 16.6604 4.03796 16.6604 4.03796C16.6603 4.03796 16.6602 4.03796 16.6602 4.03796C16.6601 4.03796 16.66 4.03796 16.66 4.03796C16.6599 4.03796 16.6598 4.03796 16.6598 4.03796C16.6597 4.03796 16.6597 4.03796 16.6596 4.03796C16.6595 4.03796 16.6595 4.03796 16.6594 4.03796C16.6593 4.03796 16.6593 4.03796 16.6592 4.03796C16.6591 4.03796 16.6591 4.03796 16.659 4.03796C16.6589 4.03796 16.6589 4.03796 16.6588 4.03796C16.6587 4.03796 16.6587 4.03796 16.6586 4.03796C16.6585 4.03796 16.6585 4.03796 16.6584 4.03796C16.6583 4.03796 16.6583 4.03796 16.6582 4.03796C16.6581 4.03796 16.6581 4.03796 16.658 4.03796C16.6579 4.03796 16.6579 4.03796 16.6578 4.03796C16.6577 4.03796 16.6577 4.03796 16.6576 4.03796C16.6575 4.03796 16.6575 4.03796 16.6574 4.03796C16.6573 4.03796 16.6573 4.03796 16.6572 4.03796C16.6571 4.03796 16.6571 4.03796 16.657 4.03796C16.6569 4.03796 16.6569 4.03796 16.6568 4.03796C16.6568 4.03796 16.6567 4.03796 16.6566 4.03796C16.6566 4.03796 16.6565 4.03796 16.6564 4.03796C16.6564 4.03796 16.6563 4.03796 16.6562 4.03796C16.6562 4.03796 16.6561 4.03796 16.656 4.03796C16.656 4.03796 16.6559 4.03796 16.6558 4.03796C16.6558 4.03796 16.6557 4.03796 16.6556 4.03796C16.6556 4.03796 16.6555 4.03796 16.6554 4.03796C16.6554 4.03796 16.6553 4.03796 16.6552 4.03796C16.6552 4.03796 16.6551 4.03796 16.655 4.03796C16.655 4.03796 16.6549 4.03796 16.6548 4.03796C16.6548 4.03796 16.6547 4.03796 16.6546 4.03796C16.6546 4.03796 16.6545 4.03796 16.6544 4.03796C16.6544 4.03796 16.6543 4.03796 16.6542 4.03796C16.6542 4.03796 16.6541 4.03796 16.654 4.03796C16.654 4.03796 16.6539 4.03796 16.6539 4.03796C16.6538 4.03796 16.6537 4.03796 16.6537 4.03796C16.6536 4.03796 16.6535 4.03796 16.6535 4.03796C16.6534 4.03796 16.6533 4.03796 16.6533 4.03796C16.6532 4.03796 16.6531 4.03796 16.6531 4.03796C16.653 4.03796 16.6529 4.03796 16.6529 4.03796C16.6528 4.03796 16.6527 4.03796 16.6527 4.03796C16.6526 4.03796 16.6525 4.03796 16.6525 4.03796C16.6524 4.03796 16.6523 4.03796 16.6523 4.03796C16.6522 4.03796 16.6521 4.03796 16.6521 4.03796C16.652 4.03796 16.6519 4.03796 16.6519 4.03796C16.6518 4.03796 16.6517 4.03796 16.6517 4.03796C16.6516 4.03796 16.6515 4.03796 16.6515 4.03796C16.6514 4.03796 16.6513 4.03796 16.6513 4.03796C16.6512 4.03796 16.6511 4.03796 16.6511 4.03796C16.651 4.03796 16.6509 4.03796 16.6509 4.03796C16.6508 4.03796 16.6508 4.03796 16.6507 4.03796C16.6506 4.03796 16.6506 4.03796 16.6505 4.03796C16.6504 4.03796 16.6504 4.03796 16.6503 4.03796C16.6502 4.03796 16.6502 4.03796 16.6501 4.03796C16.65 4.03796 16.65 4.03796 16.6499 4.03796C16.6498 4.03796 16.6498 4.03796 16.6497 4.03796C16.6496 4.03796 16.6496 4.03796 16.6495 4.03796C16.6494 4.03796 16.6494 4.03796 16.6493 4.03796C16.6492 4.03796 16.6492 4.03796 16.6491 4.03796C16.649 4.03796 16.649 4.03796 16.6489 4.03796C16.6488 4.03796 16.6488 4.03796 16.6487 4.03796C16.6486 4.03796 16.6486 4.03796 16.6485 4.03796C16.6484 4.03796 16.6484 4.03796 16.6483 4.03796C16.6482 4.03796 16.6482 4.03796 16.6481 4.03796C16.648 4.03796 16.648 4.03796 16.6479 4.03796C16.6479 4.03796 16.6478 4.03796 16.6477 4.03796C16.6477 4.03796 16.6476 4.03796 16.6475 4.03796C16.6475 4.03796 16.6474 4.03796 16.6473 4.03796C16.6473 4.03796 16.6472 4.03796 16.6471 4.03796C16.6471 4.03796 16.647 4.03796 16.6469 4.03796C16.6469 4.03796 16.6468 4.03796 16.6467 4.03796C16.6467 4.03796 16.6466 4.03796 16.6465 4.03796C16.6465 4.03796 16.6464 4.03796 16.6463 4.03796C16.6463 4.03796 16.6462 4.03796 16.6461 4.03796C16.6461 4.03796 16.646 4.03796 16.6459 4.03796C16.6459 4.03796 16.6458 4.03796 16.6457 4.03796C16.6457 4.03796 16.6456 4.03796 16.6455 4.03796C16.6455 4.03796 16.6454 4.03796 16.6453 4.03796C16.6453 4.03796 16.6452 4.03796 16.6451 4.03796C16.6451 4.03796 16.645 4.03796 16.645 4.03796C16.6449 4.03796 16.6448 4.03796 16.6448 4.03796C16.6447 4.03796 16.6446 4.03796 16.6446 4.03796C16.6445 4.03796 16.6444 4.03796 16.6444 4.03796C16.6443 4.03796 16.6442 4.03796 16.6442 4.03796C16.6441 4.03796 16.644 4.03796 16.644 4.03796C16.6439 4.03796 16.6438 4.03796 16.6438 4.03796C16.6437 4.03796 16.6436 4.03796 16.6436 4.03796C16.6435 4.03796 16.6434 4.03796 16.6434 4.03796C16.6433 4.03796 16.6432 4.03796 16.6432 4.03796C16.6431 4.03796 16.643 4.03796 16.643 4.03796C16.6429 4.03796 16.6428 4.03796 16.6428 4.03796C16.6427 4.03796 16.6426 4.03796 16.6426 4.03796C16.6425 4.03796 16.6424 4.03796 16.6424 4.03796C16.6423 4.03796 16.6422 4.03796 16.6422 4.03796C16.6421 4.03796 16.642 4.03796 16.642 4.03796C16.6419 4.03796 16.6419 4.03796 16.6418 4.03796C16.6417 4.03796 16.6417 4.03796 16.6416 4.03796C16.6415 4.03796 16.6415 4.03796 16.6414 4.03796C16.6413 4.03796 16.6413 4.03796 16.6412 4.03796C16.6411 4.03796 16.6411 4.03796 16.641 4.03796C16.6409 4.03796 16.6409 4.03796 16.6408 4.03796C16.6407 4.03796 16.6407 4.03796 16.6406 4.03796C16.6405 4.03796 16.6405 4.03796 16.6404 4.03796C16.6403 4.03796 16.6403 4.03796 16.6402 4.03796C16.6401 4.03796 16.6401 4.03796 16.64 4.03796C16.6399 4.03796 16.6399 4.03796 16.6398 4.03796C16.6397 4.03796 16.6397 4.03796 16.6396 4.03796C16.6395 4.03796 16.6395 4.03796 16.6394 4.03796C16.6393 4.03796 16.6393 4.03796 16.6392 4.03796C16.6391 4.03796 16.6391 4.03796 16.639 4.03796C16.639 4.03796 16.6389 4.03796 16.6388 4.03796C16.6388 4.03796 16.6387 4.03796 16.6386 4.03796C16.6386 4.03796 16.6385 4.03796 16.6384 4.03796C16.6384 4.03796 16.6383 4.03796 16.6382 4.03796C16.6382 4.03796 16.6381 4.03796 16.638 4.03796C16.638 4.03796 16.6379 4.03796 16.6378 4.03796C16.6378 4.03796 16.6377 4.03796 16.6376 4.03796C16.6376 4.03796 16.6375 4.03796 16.6374 4.03796C16.6374 4.03796 16.6373 4.03796 16.6372 4.03796C16.6372 4.03796 16.6371 4.03796 16.637 4.03796C16.637 4.03796 16.6369 4.03796 16.6368 4.03796C16.6368 4.03796 16.6367 4.03796 16.6366 4.03796C16.6366 4.03796 16.6365 4.03796 16.6364 4.03796C16.6364 4.03796 16.6363 4.03796 16.6362 4.03796C16.6362 4.03796 16.6361 4.03796 16.6361 4.03796C16.636 4.03796 16.6359 4.03796 16.6359 4.03796C16.6358 4.03796 16.6357 4.03796 16.6357 4.03796C16.6356 4.03796 16.6355 4.03796 16.6355 4.03796C16.6354 4.03796 16.6353 4.03796 16.6353 4.03796C16.6352 4.03796 16.6351 4.03796 16.6351 4.03796C16.635 4.03796 16.6349 4.03796 16.6349 4.03796C16.6348 4.03796 16.6347 4.03796 16.6347 4.03796C16.6346 4.03796 16.6345 4.03796 16.6345 4.03796C16.6344 4.03796 16.6343 4.03796 16.6343 4.03796C16.6342 4.03796 16.6341 4.03796 16.6341 4.03796C16.634 4.03796 16.6339 4.03796 16.6339 4.03796C16.6338 4.03796 16.6337 4.03796 16.6337 4.03796C16.6336 4.03796 16.6335 4.03796 16.6335 4.03796C16.6334 4.03796 16.6333 4.03796 16.6333 4.03796C16.6332 4.03796 16.6332 4.03796 16.6331 4.03796C16.633 4.03796 16.633 4.03796 16.6329 4.03796C16.6328 4.03796 16.6328 4.03796 16.6327 4.03796C16.6326 4.03796 16.6326 4.03796 16.6325 4.03796C16.6324 4.03796 16.6324 4.03796 16.6323 4.03796C16.6322 4.03796 16.6322 4.03796 16.6321 4.03796C16.632 4.03796 16.632 4.03796 16.6319 4.03796C16.6318 4.03796 16.6318 4.03796 16.6317 4.03796C16.6316 4.03796 16.6316 4.03796 16.6315 4.03796C16.6314 4.03796 16.6314 4.03796 16.6313 4.03796C16.6312 4.03796 16.6312 4.03796 16.6311 4.03796C16.631 4.03796 16.631 4.03796 16.6309 4.03796C16.6308 4.03796 16.6308 4.03796 16.6307 4.03796C16.6306 4.03796 16.6306 4.03796 16.6305 4.03796C16.6304 4.03796 16.6304 4.03796 16.6303 4.03796C16.6302 4.03796 16.6302 4.03796 16.6301 4.03796C16.6301 4.03796 16.63 4.03796 16.6299 4.03796C16.6299 4.03796 16.6298 4.03796 16.6297 4.03796C16.6297 4.03796 16.6296 4.03796 16.6295 4.03796C16.6295 4.03796 16.6294 4.03796 16.6293 4.03796C16.6293 4.03796 16.6292 4.03796 16.6291 4.03796C16.6291 4.03796 16.629 4.03796 16.6289 4.03796C16.6289 4.03796 16.6288 4.03796 16.6287 4.03796C16.6287 4.03796 16.6286 4.03796 16.6285 4.03796C16.6285 4.03796 16.6284 4.03796 16.6283 4.03796C16.6283 4.03796 16.6282 4.03796 16.6281 4.03796C16.6281 4.03796 16.628 4.03796 16.6279 4.03796C16.6279 4.03796 16.6278 4.03796 16.6277 4.03796C16.6277 4.03796 16.6276 4.03796 16.6275 4.03796C16.6275 4.03796 16.6274 4.03796 16.6273 4.03796C16.6273 4.03796 16.6272 4.03796 16.6272 4.03796C16.6271 4.03796 16.627 4.03796 16.627 4.03796C16.6269 4.03796 16.6268 4.03796 16.6268 4.03796C16.6267 4.03796 16.6266 4.03796 16.6266 4.03796C16.6265 4.03796 16.6264 4.03796 16.6264 4.03796C16.6263 4.03796 16.6262 4.03796 16.6262 4.03796C16.6261 4.03796 16.626 4.03796 16.626 4.03796C16.6259 4.03796 16.6258 4.03796 16.6258 4.03796C16.6257 4.03796 16.6256 4.03796 16.6256 4.03796C16.6255 4.03796 16.6254 4.03796 16.6254 4.03796C16.6253 4.03796 16.6252 4.03796 16.6252 4.03796C16.6251 4.03796 16.625 4.03796 16.625 4.03796C16.6249 4.03796 16.6248 4.03796 16.6248 4.03796C16.6247 4.03796 16.6246 4.03796 16.6246 4.03796C16.6245 4.03796 16.6244 4.03796 16.6244 4.03796C16.6243 4.03796 16.6243 4.03796 16.6242 4.03796C16.6241 4.03796 16.6241 4.03796 16.624 4.03796C16.6239 4.03796 16.6239 4.03796 16.6238 4.03796C16.6237 4.03796 16.6237 4.03796 16.6236 4.03796C16.6235 4.03796 16.6235 4.03796 16.6234 4.03796C16.6233 4.03796 16.6233 4.03796 16.6232 4.03796C16.6231 4.03796 16.6231 4.03796 16.623 4.03796C16.6229 4.03796 16.6229 4.03796 16.6228 4.03796C16.6227 4.03796 16.6227 4.03796 16.6226 4.03796C16.6225 4.03796 16.6225 4.03796 16.6224 4.03796C16.6223 4.03796 16.6223 4.03796 16.6222 4.03796C16.6221 4.03796 16.6221 4.03796 16.622 4.03796C16.6219 4.03796 16.6219 4.03796 16.6218 4.03796C16.6217 4.03796 16.6217 4.03796 16.6216 4.03796C16.6215 4.03796 16.6215 4.03796 16.6214 4.03796C16.6213 4.03796 16.6213 4.03796 16.6212 4.03796C16.6212 4.03796 16.6211 4.03796 16.621 4.03796C16.621 4.03796 16.6209 4.03796 16.6208 4.03796C16.6208 4.03796 16.6207 4.03796 16.6206 4.03796C16.6206 4.03796 16.6205 4.03796 16.6204 4.03796C16.6204 4.03796 16.6203 4.03796 16.6202 4.03796C16.6202 4.03796 16.6201 4.03796 16.62 4.03796C16.62 4.03796 16.6199 4.03796 16.6198 4.03796C16.6198 4.03796 16.6197 4.03796 16.6196 4.03796C16.6196 4.03796 16.6195 4.03796 16.6194 4.03796C16.6194 4.03796 16.6193 4.03796 16.6192 4.03796C16.6192 4.03796 16.6191 4.03796 16.619 4.03796C16.619 4.03796 16.6189 4.03796 16.6188 4.03796C16.6188 4.03796 16.6187 4.03796 16.6186 4.03796C16.6186 4.03796 16.6185 4.03796 16.6184 4.03796C16.6184 4.03796 16.6183 4.03796 16.6183 4.03796C16.6182 4.03796 16.6181 4.03796 16.6181 4.03796C16.618 4.03796 16.6179 4.03796 16.6179 4.03796C16.6178 4.03796 16.6177 4.03796 16.6177 4.03796C16.6176 4.03796 16.6175 4.03796 16.6175 4.03796C16.6174 4.03796 16.6173 4.03796 16.6173 4.03796C16.6172 4.03796 16.6171 4.03796 16.6171 4.03796C16.617 4.03796 16.6169 4.03796 16.6169 4.03796C16.6168 4.03796 16.6167 4.03796 16.6167 4.03796C16.6166 4.03796 16.6165 4.03796 16.6165 4.03796C16.6164 4.03796 16.6163 4.03796 16.6163 4.03796C16.6162 4.03796 16.6161 4.03796 16.6161 4.03796C16.616 4.03796 16.6159 4.03796 16.6159 4.03796C16.6158 4.03796 16.6157 4.03796 16.6157 4.03796C16.6156 4.03796 16.6155 4.03796 16.6155 4.03796C16.6154 4.03796 16.6153 4.03796 16.6153 4.03796C16.6152 4.03796 16.6152 4.03796 16.6151 4.03796C16.615 4.03796 16.615 4.03796 16.6149 4.03796C16.6148 4.03796 16.6148 4.03796 16.6147 4.03796C16.6146 4.03796 16.6146 4.03796 16.6145 4.03796C16.6144 4.03796 16.6144 4.03796 16.6143 4.03796C16.6142 4.03796 16.6142 4.03796 16.6141 4.03796C16.614 4.03796 16.614 4.03796 16.6139 4.03796C16.6138 4.03796 16.6138 4.03796 16.6137 4.03796C16.6136 4.03796 16.6136 4.03796 16.6135 4.03796C16.6134 4.03796 16.6134 4.03796 16.6133 4.03796C16.6132 4.03796 16.6132 4.03796 16.6131 4.03796V5.03796C16.6132 5.03796 16.6132 5.03796 16.6133 5.03796C16.6134 5.03796 16.6134 5.03796 16.6135 5.03796C16.6136 5.03796 16.6136 5.03796 16.6137 5.03796C16.6138 5.03796 16.6138 5.03796 16.6139 5.03796C16.614 5.03796 16.614 5.03796 16.6141 5.03796C16.6142 5.03796 16.6142 5.03796 16.6143 5.03796C16.6144 5.03796 16.6144 5.03796 16.6145 5.03796C16.6146 5.03796 16.6146 5.03796 16.6147 5.03796C16.6148 5.03796 16.6148 5.03796 16.6149 5.03796C16.615 5.03796 16.615 5.03796 16.6151 5.03796C16.6152 5.03796 16.6152 5.03796 16.6153 5.03796C16.6153 5.03796 16.6154 5.03796 16.6155 5.03796C16.6155 5.03796 16.6156 5.03796 16.6157 5.03796C16.6157 5.03796 16.6158 5.03796 16.6159 5.03796C16.6159 5.03796 16.616 5.03796 16.6161 5.03796C16.6161 5.03796 16.6162 5.03796 16.6163 5.03796C16.6163 5.03796 16.6164 5.03796 16.6165 5.03796C16.6165 5.03796 16.6166 5.03796 16.6167 5.03796C16.6167 5.03796 16.6168 5.03796 16.6169 5.03796C16.6169 5.03796 16.617 5.03796 16.6171 5.03796C16.6171 5.03796 16.6172 5.03796 16.6173 5.03796C16.6173 5.03796 16.6174 5.03796 16.6175 5.03796C16.6175 5.03796 16.6176 5.03796 16.6177 5.03796C16.6177 5.03796 16.6178 5.03796 16.6179 5.03796C16.6179 5.03796 16.618 5.03796 16.6181 5.03796C16.6181 5.03796 16.6182 5.03796 16.6183 5.03796C16.6183 5.03796 16.6184 5.03796 16.6184 5.03796C16.6185 5.03796 16.6186 5.03796 16.6186 5.03796C16.6187 5.03796 16.6188 5.03796 16.6188 5.03796C16.6189 5.03796 16.619 5.03796 16.619 5.03796C16.6191 5.03796 16.6192 5.03796 16.6192 5.03796C16.6193 5.03796 16.6194 5.03796 16.6194 5.03796C16.6195 5.03796 16.6196 5.03796 16.6196 5.03796C16.6197 5.03796 16.6198 5.03796 16.6198 5.03796C16.6199 5.03796 16.62 5.03796 16.62 5.03796C16.6201 5.03796 16.6202 5.03796 16.6202 5.03796C16.6203 5.03796 16.6204 5.03796 16.6204 5.03796C16.6205 5.03796 16.6206 5.03796 16.6206 5.03796C16.6207 5.03796 16.6208 5.03796 16.6208 5.03796C16.6209 5.03796 16.621 5.03796 16.621 5.03796C16.6211 5.03796 16.6212 5.03796 16.6212 5.03796C16.6213 5.03796 16.6213 5.03796 16.6214 5.03796C16.6215 5.03796 16.6215 5.03796 16.6216 5.03796C16.6217 5.03796 16.6217 5.03796 16.6218 5.03796C16.6219 5.03796 16.6219 5.03796 16.622 5.03796C16.6221 5.03796 16.6221 5.03796 16.6222 5.03796C16.6223 5.03796 16.6223 5.03796 16.6224 5.03796C16.6225 5.03796 16.6225 5.03796 16.6226 5.03796C16.6227 5.03796 16.6227 5.03796 16.6228 5.03796C16.6229 5.03796 16.6229 5.03796 16.623 5.03796C16.6231 5.03796 16.6231 5.03796 16.6232 5.03796C16.6233 5.03796 16.6233 5.03796 16.6234 5.03796C16.6235 5.03796 16.6235 5.03796 16.6236 5.03796C16.6237 5.03796 16.6237 5.03796 16.6238 5.03796C16.6239 5.03796 16.6239 5.03796 16.624 5.03796C16.6241 5.03796 16.6241 5.03796 16.6242 5.03796C16.6243 5.03796 16.6243 5.03796 16.6244 5.03796C16.6244 5.03796 16.6245 5.03796 16.6246 5.03796C16.6246 5.03796 16.6247 5.03796 16.6248 5.03796C16.6248 5.03796 16.6249 5.03796 16.625 5.03796C16.625 5.03796 16.6251 5.03796 16.6252 5.03796C16.6252 5.03796 16.6253 5.03796 16.6254 5.03796C16.6254 5.03796 16.6255 5.03796 16.6256 5.03796C16.6256 5.03796 16.6257 5.03796 16.6258 5.03796C16.6258 5.03796 16.6259 5.03796 16.626 5.03796C16.626 5.03796 16.6261 5.03796 16.6262 5.03796C16.6262 5.03796 16.6263 5.03796 16.6264 5.03796C16.6264 5.03796 16.6265 5.03796 16.6266 5.03796C16.6266 5.03796 16.6267 5.03796 16.6268 5.03796C16.6268 5.03796 16.6269 5.03796 16.627 5.03796C16.627 5.03796 16.6271 5.03796 16.6272 5.03796C16.6272 5.03796 16.6273 5.03796 16.6273 5.03796C16.6274 5.03796 16.6275 5.03796 16.6275 5.03796C16.6276 5.03796 16.6277 5.03796 16.6277 5.03796C16.6278 5.03796 16.6279 5.03796 16.6279 5.03796C16.628 5.03796 16.6281 5.03796 16.6281 5.03796C16.6282 5.03796 16.6283 5.03796 16.6283 5.03796C16.6284 5.03796 16.6285 5.03796 16.6285 5.03796C16.6286 5.03796 16.6287 5.03796 16.6287 5.03796C16.6288 5.03796 16.6289 5.03796 16.6289 5.03796C16.629 5.03796 16.6291 5.03796 16.6291 5.03796C16.6292 5.03796 16.6293 5.03796 16.6293 5.03796C16.6294 5.03796 16.6295 5.03796 16.6295 5.03796C16.6296 5.03796 16.6297 5.03796 16.6297 5.03796C16.6298 5.03796 16.6299 5.03796 16.6299 5.03796C16.63 5.03796 16.6301 5.03796 16.6301 5.03796C16.6302 5.03796 16.6302 5.03796 16.6303 5.03796C16.6304 5.03796 16.6304 5.03796 16.6305 5.03796C16.6306 5.03796 16.6306 5.03796 16.6307 5.03796C16.6308 5.03796 16.6308 5.03796 16.6309 5.03796C16.631 5.03796 16.631 5.03796 16.6311 5.03796C16.6312 5.03796 16.6312 5.03796 16.6313 5.03796C16.6314 5.03796 16.6314 5.03796 16.6315 5.03796C16.6316 5.03796 16.6316 5.03796 16.6317 5.03796C16.6318 5.03796 16.6318 5.03796 16.6319 5.03796C16.632 5.03796 16.632 5.03796 16.6321 5.03796C16.6322 5.03796 16.6322 5.03796 16.6323 5.03796C16.6324 5.03796 16.6324 5.03796 16.6325 5.03796C16.6326 5.03796 16.6326 5.03796 16.6327 5.03796C16.6328 5.03796 16.6328 5.03796 16.6329 5.03796C16.633 5.03796 16.633 5.03796 16.6331 5.03796C16.6332 5.03796 16.6332 5.03796 16.6333 5.03796C16.6333 5.03796 16.6334 5.03796 16.6335 5.03796C16.6335 5.03796 16.6336 5.03796 16.6337 5.03796C16.6337 5.03796 16.6338 5.03796 16.6339 5.03796C16.6339 5.03796 16.634 5.03796 16.6341 5.03796C16.6341 5.03796 16.6342 5.03796 16.6343 5.03796C16.6343 5.03796 16.6344 5.03796 16.6345 5.03796C16.6345 5.03796 16.6346 5.03796 16.6347 5.03796C16.6347 5.03796 16.6348 5.03796 16.6349 5.03796C16.6349 5.03796 16.635 5.03796 16.6351 5.03796C16.6351 5.03796 16.6352 5.03796 16.6353 5.03796C16.6353 5.03796 16.6354 5.03796 16.6355 5.03796C16.6355 5.03796 16.6356 5.03796 16.6357 5.03796C16.6357 5.03796 16.6358 5.03796 16.6359 5.03796C16.6359 5.03796 16.636 5.03796 16.6361 5.03796C16.6361 5.03796 16.6362 5.03796 16.6362 5.03796C16.6363 5.03796 16.6364 5.03796 16.6364 5.03796C16.6365 5.03796 16.6366 5.03796 16.6366 5.03796C16.6367 5.03796 16.6368 5.03796 16.6368 5.03796C16.6369 5.03796 16.637 5.03796 16.637 5.03796C16.6371 5.03796 16.6372 5.03796 16.6372 5.03796C16.6373 5.03796 16.6374 5.03796 16.6374 5.03796C16.6375 5.03796 16.6376 5.03796 16.6376 5.03796C16.6377 5.03796 16.6378 5.03796 16.6378 5.03796C16.6379 5.03796 16.638 5.03796 16.638 5.03796C16.6381 5.03796 16.6382 5.03796 16.6382 5.03796C16.6383 5.03796 16.6384 5.03796 16.6384 5.03796C16.6385 5.03796 16.6386 5.03796 16.6386 5.03796C16.6387 5.03796 16.6388 5.03796 16.6388 5.03796C16.6389 5.03796 16.639 5.03796 16.639 5.03796C16.6391 5.03796 16.6391 5.03796 16.6392 5.03796C16.6393 5.03796 16.6393 5.03796 16.6394 5.03796C16.6395 5.03796 16.6395 5.03796 16.6396 5.03796C16.6397 5.03796 16.6397 5.03796 16.6398 5.03796C16.6399 5.03796 16.6399 5.03796 16.64 5.03796C16.6401 5.03796 16.6401 5.03796 16.6402 5.03796C16.6403 5.03796 16.6403 5.03796 16.6404 5.03796C16.6405 5.03796 16.6405 5.03796 16.6406 5.03796C16.6407 5.03796 16.6407 5.03796 16.6408 5.03796C16.6409 5.03796 16.6409 5.03796 16.641 5.03796C16.6411 5.03796 16.6411 5.03796 16.6412 5.03796C16.6413 5.03796 16.6413 5.03796 16.6414 5.03796C16.6415 5.03796 16.6415 5.03796 16.6416 5.03796C16.6417 5.03796 16.6417 5.03796 16.6418 5.03796C16.6419 5.03796 16.6419 5.03796 16.642 5.03796C16.642 5.03796 16.6421 5.03796 16.6422 5.03796C16.6422 5.03796 16.6423 5.03796 16.6424 5.03796C16.6424 5.03796 16.6425 5.03796 16.6426 5.03796C16.6426 5.03796 16.6427 5.03796 16.6428 5.03796C16.6428 5.03796 16.6429 5.03796 16.643 5.03796C16.643 5.03796 16.6431 5.03796 16.6432 5.03796C16.6432 5.03796 16.6433 5.03796 16.6434 5.03796C16.6434 5.03796 16.6435 5.03796 16.6436 5.03796C16.6436 5.03796 16.6437 5.03796 16.6438 5.03796C16.6438 5.03796 16.6439 5.03796 16.644 5.03796C16.644 5.03796 16.6441 5.03796 16.6442 5.03796C16.6442 5.03796 16.6443 5.03796 16.6444 5.03796C16.6444 5.03796 16.6445 5.03796 16.6446 5.03796C16.6446 5.03796 16.6447 5.03796 16.6448 5.03796C16.6448 5.03796 16.6449 5.03796 16.645 5.03796C16.645 5.03796 16.6451 5.03796 16.6451 5.03796C16.6452 5.03796 16.6453 5.03796 16.6453 5.03796C16.6454 5.03796 16.6455 5.03796 16.6455 5.03796C16.6456 5.03796 16.6457 5.03796 16.6457 5.03796C16.6458 5.03796 16.6459 5.03796 16.6459 5.03796C16.646 5.03796 16.6461 5.03796 16.6461 5.03796C16.6462 5.03796 16.6463 5.03796 16.6463 5.03796C16.6464 5.03796 16.6465 5.03796 16.6465 5.03796C16.6466 5.03796 16.6467 5.03796 16.6467 5.03796C16.6468 5.03796 16.6469 5.03796 16.6469 5.03796C16.647 5.03796 16.6471 5.03796 16.6471 5.03796C16.6472 5.03796 16.6473 5.03796 16.6473 5.03796C16.6474 5.03796 16.6475 5.03796 16.6475 5.03796C16.6476 5.03796 16.6477 5.03796 16.6477 5.03796C16.6478 5.03796 16.6479 5.03796 16.6479 5.03796C16.648 5.03796 16.648 5.03796 16.6481 5.03796C16.6482 5.03796 16.6482 5.03796 16.6483 5.03796C16.6484 5.03796 16.6484 5.03796 16.6485 5.03796C16.6486 5.03796 16.6486 5.03796 16.6487 5.03796C16.6488 5.03796 16.6488 5.03796 16.6489 5.03796C16.649 5.03796 16.649 5.03796 16.6491 5.03796C16.6492 5.03796 16.6492 5.03796 16.6493 5.03796C16.6494 5.03796 16.6494 5.03796 16.6495 5.03796C16.6496 5.03796 16.6496 5.03796 16.6497 5.03796C16.6498 5.03796 16.6498 5.03796 16.6499 5.03796C16.65 5.03796 16.65 5.03796 16.6501 5.03796C16.6502 5.03796 16.6502 5.03796 16.6503 5.03796C16.6504 5.03796 16.6504 5.03796 16.6505 5.03796C16.6506 5.03796 16.6506 5.03796 16.6507 5.03796C16.6508 5.03796 16.6508 5.03796 16.6509 5.03796C16.6509 5.03796 16.651 5.03796 16.6511 5.03796C16.6511 5.03796 16.6512 5.03796 16.6513 5.03796C16.6513 5.03796 16.6514 5.03796 16.6515 5.03796C16.6515 5.03796 16.6516 5.03796 16.6517 5.03796C16.6517 5.03796 16.6518 5.03796 16.6519 5.03796C16.6519 5.03796 16.652 5.03796 16.6521 5.03796C16.6521 5.03796 16.6522 5.03796 16.6523 5.03796C16.6523 5.03796 16.6524 5.03796 16.6525 5.03796C16.6525 5.03796 16.6526 5.03796 16.6527 5.03796C16.6527 5.03796 16.6528 5.03796 16.6529 5.03796C16.6529 5.03796 16.653 5.03796 16.6531 5.03796C16.6531 5.03796 16.6532 5.03796 16.6533 5.03796C16.6533 5.03796 16.6534 5.03796 16.6535 5.03796C16.6535 5.03796 16.6536 5.03796 16.6537 5.03796C16.6537 5.03796 16.6538 5.03796 16.6539 5.03796C16.6539 5.03796 16.654 5.03796 16.654 5.03796C16.6541 5.03796 16.6542 5.03796 16.6542 5.03796C16.6543 5.03796 16.6544 5.03796 16.6544 5.03796C16.6545 5.03796 16.6546 5.03796 16.6546 5.03796C16.6547 5.03796 16.6548 5.03796 16.6548 5.03796C16.6549 5.03796 16.655 5.03796 16.655 5.03796C16.6551 5.03796 16.6552 5.03796 16.6552 5.03796C16.6553 5.03796 16.6554 5.03796 16.6554 5.03796C16.6555 5.03796 16.6556 5.03796 16.6556 5.03796C16.6557 5.03796 16.6558 5.03796 16.6558 5.03796C16.6559 5.03796 16.656 5.03796 16.656 5.03796C16.6561 5.03796 16.6562 5.03796 16.6562 5.03796C16.6563 5.03796 16.6564 5.03796 16.6564 5.03796C16.6565 5.03796 16.6566 5.03796 16.6566 5.03796C16.6567 5.03796 16.6568 5.03796 16.6568 5.03796C16.6569 5.03796 16.6569 5.03796 16.657 5.03796C16.6571 5.03796 16.6571 5.03796 16.6572 5.03796C16.6573 5.03796 16.6573 5.03796 16.6574 5.03796C16.6575 5.03796 16.6575 5.03796 16.6576 5.03796C16.6577 5.03796 16.6577 5.03796 16.6578 5.03796C16.6579 5.03796 16.6579 5.03796 16.658 5.03796C16.6581 5.03796 16.6581 5.03796 16.6582 5.03796C16.6583 5.03796 16.6583 5.03796 16.6584 5.03796C16.6585 5.03796 16.6585 5.03796 16.6586 5.03796C16.6587 5.03796 16.6587 5.03796 16.6588 5.03796C16.6589 5.03796 16.6589 5.03796 16.659 5.03796C16.6591 5.03796 16.6591 5.03796 16.6592 5.03796C16.6593 5.03796 16.6593 5.03796 16.6594 5.03796C16.6595 5.03796 16.6595 5.03796 16.6596 5.03796C16.6597 5.03796 16.6597 5.03796 16.6598 5.03796C16.6598 5.03796 16.6599 5.03796 16.66 5.03796C16.66 5.03796 16.6601 5.03796 16.6602 5.03796C16.6602 5.03796 16.6603 5.03796 16.6604 5.03796C16.6604 5.03796 16.6605 5.03796 16.6606 5.03796C16.6606 5.03796 16.6607 5.03796 16.6608 5.03796C16.6608 5.03796 16.6609 5.03796 16.661 5.03796C16.661 5.03796 16.6611 5.03796 16.6612 5.03796C16.6612 5.03796 16.6613 5.03796 16.6614 5.03796C16.6614 5.03796 16.6615 5.03796 16.6616 5.03796C16.6616 5.03796 16.6617 5.03796 16.6618 5.03796C16.6618 5.03796 16.6619 5.03796 16.662 5.03796C16.662 5.03796 16.6621 5.03796 16.6622 5.03796C16.6622 5.03796 16.6623 5.03796 16.6624 5.03796C16.6624 5.03796 16.6625 5.03796 16.6626 5.03796C16.6626 5.03796 16.6627 5.03796 16.6628 5.03796C16.6628 5.03796 16.6629 5.03796 16.6629 5.03796C16.663 5.03796 16.6631 5.03796 16.6631 5.03796C16.6632 5.03796 16.6633 5.03796 16.6633 5.03796C16.6634 5.03796 16.6635 5.03796 16.6635 5.03796C16.6636 5.03796 16.6637 5.03796 16.6637 5.03796C16.6638 5.03796 16.6639 5.03796 16.6639 5.03796C16.664 5.03796 16.6641 5.03796 16.6641 5.03796C16.6642 5.03796 16.6643 5.03796 16.6643 5.03796C16.6644 5.03796 16.6645 5.03796 16.6645 5.03796C16.6646 5.03796 16.6647 5.03796 16.6647 5.03796C16.6648 5.03796 16.6649 5.03796 16.6649 5.03796C16.665 5.03796 16.6651 5.03796 16.6651 5.03796C16.6652 5.03796 16.6653 5.03796 16.6653 5.03796C16.6654 5.03796 16.6655 5.03796 16.6655 5.03796C16.6656 5.03796 16.6657 5.03796 16.6657 5.03796C16.6658 5.03796 16.6658 5.03796 16.6659 5.03796C16.666 5.03796 16.666 5.03796 16.6661 5.03796C16.6662 5.03796 16.6662 5.03796 16.6663 5.03796C16.6664 5.03796 16.6664 5.03796 16.6665 5.03796C16.6666 5.03796 16.6666 5.03796 16.6667 5.03796C16.6668 5.03796 16.6668 5.03796 16.6669 5.03796C16.667 5.03796 16.667 5.03796 16.6671 5.03796C16.6672 5.03796 16.6672 5.03796 16.6673 5.03796C16.6674 5.03796 16.6674 5.03796 16.6675 5.03796C16.6676 5.03796 16.6676 5.03796 16.6677 5.03796C16.6678 5.03796 16.6678 5.03796 16.6679 5.03796C16.668 5.03796 16.668 5.03796 16.6681 5.03796C16.6682 5.03796 16.6682 5.03796 16.6683 5.03796C16.6684 5.03796 16.6684 5.03796 16.6685 5.03796C16.6686 5.03796 16.6686 5.03796 16.6687 5.03796C16.6687 5.03796 16.6688 5.03796 16.6689 5.03796C16.6689 5.03796 16.669 5.03796 16.6691 5.03796C16.6691 5.03796 16.6692 5.03796 16.6693 5.03796C16.6693 5.03796 16.6694 5.03796 16.6695 5.03796C16.6695 5.03796 16.6696 5.03796 16.6697 5.03796C16.6697 5.03796 16.6698 5.03796 16.6699 5.03796C16.6699 5.03796 16.67 5.03796 16.6701 5.03796C16.6701 5.03796 16.6702 5.03796 16.6703 5.03796C16.6703 5.03796 16.6704 5.03796 16.6705 5.03796C16.6705 5.03796 16.6706 5.03796 16.6707 5.03796C16.6707 5.03796 16.6708 5.03796 16.6709 5.03796C16.6709 5.03796 16.671 5.03796 16.6711 5.03796C16.6711 5.03796 16.6712 5.03796 16.6713 5.03796C16.6713 5.03796 16.6714 5.03796 16.6715 5.03796C16.6715 5.03796 16.6716 5.03796 16.6716 5.03796C16.6717 5.03796 16.6718 5.03796 16.6718 5.03796C16.6719 5.03796 16.672 5.03796 16.672 5.03796C16.6721 5.03796 16.6722 5.03796 16.6722 5.03796C16.6723 5.03796 16.6724 5.03796 16.6724 5.03796C16.6725 5.03796 16.6726 5.03796 16.6726 5.03796C16.6727 5.03796 16.6728 5.03796 16.6728 5.03796C16.6729 5.03796 16.673 5.03796 16.673 5.03796C16.6731 5.03796 16.6732 5.03796 16.6732 5.03796C16.6733 5.03796 16.6734 5.03796 16.6734 5.03796C16.6735 5.03796 16.6736 5.03796 16.6736 5.03796C16.6737 5.03796 16.6738 5.03796 16.6738 5.03796C16.6739 5.03796 16.674 5.03796 16.674 5.03796C16.6741 5.03796 16.6742 5.03796 16.6742 5.03796C16.6743 5.03796 16.6744 5.03796 16.6744 5.03796C16.6745 5.03796 16.6746 5.03796 16.6746 5.03796C16.6747 5.03796 16.6747 5.03796 16.6748 5.03796C16.6749 5.03796 16.6749 5.03796 16.675 5.03796C16.6751 5.03796 16.6751 5.03796 16.6752 5.03796C16.6753 5.03796 16.6753 5.03796 16.6754 5.03796C16.6755 5.03796 16.6755 5.03796 16.6756 5.03796C16.6757 5.03796 16.6757 5.03796 16.6758 5.03796C16.6759 5.03796 16.6759 5.03796 16.676 5.03796C16.6761 5.03796 16.6761 5.03796 16.6762 5.03796C16.6763 5.03796 16.6763 5.03796 16.6764 5.03796C16.6765 5.03796 16.6765 5.03796 16.6766 5.03796C16.6767 5.03796 16.6767 5.03796 16.6768 5.03796C16.6769 5.03796 16.6769 5.03796 16.677 5.03796C16.6771 5.03796 16.6771 5.03796 16.6772 5.03796C16.6773 5.03796 16.6773 5.03796 16.6774 5.03796C16.6775 5.03796 16.6775 5.03796 16.6776 5.03796C16.6776 5.03796 16.6777 5.03796 16.6778 5.03796C16.6778 5.03796 16.6779 5.03796 16.678 5.03796C16.678 5.03796 16.6781 5.03796 16.6782 5.03796C16.6782 5.03796 16.6783 5.03796 16.6784 5.03796C16.6784 5.03796 16.6785 5.03796 16.6786 5.03796C16.6786 5.03796 16.6787 5.03796 16.6788 5.03796C16.6788 5.03796 16.6789 5.03796 16.679 5.03796C16.679 5.03796 16.6791 5.03796 16.6792 5.03796C16.6792 5.03796 16.6793 5.03796 16.6794 5.03796C16.6794 5.03796 16.6795 5.03796 16.6796 5.03796C16.6796 5.03796 16.6797 5.03796 16.6798 5.03796C16.6798 5.03796 16.6799 5.03796 16.68 5.03796C16.68 5.03796 16.6801 5.03796 16.6802 5.03796C16.6802 5.03796 16.6803 5.03796 16.6804 5.03796C16.6804 5.03796 16.6805 5.03796 16.6805 5.03796C16.6806 5.03796 16.6807 5.03796 16.6807 5.03796C16.6808 5.03796 16.6809 5.03796 16.6809 5.03796C16.681 5.03796 16.6811 5.03796 16.6811 5.03796C16.6812 5.03796 16.6813 5.03796 16.6813 5.03796C16.6814 5.03796 16.6815 5.03796 16.6815 5.03796C16.6816 5.03796 16.6817 5.03796 16.6817 5.03796C16.6818 5.03796 16.6819 5.03796 16.6819 5.03796C16.682 5.03796 16.6821 5.03796 16.6821 5.03796C16.6822 5.03796 16.6823 5.03796 16.6823 5.03796C16.6824 5.03796 16.6825 5.03796 16.6825 5.03796C16.6826 5.03796 16.6827 5.03796 16.6827 5.03796C16.6828 5.03796 16.6829 5.03796 16.6829 5.03796C16.683 5.03796 16.6831 5.03796 16.6831 5.03796C16.6832 5.03796 16.6833 5.03796 16.6833 5.03796C16.6834 5.03796 16.6835 5.03796 16.6835 5.03796C16.6836 5.03796 16.6836 5.03796 16.6837 5.03796C16.6838 5.03796 16.6838 5.03796 16.6839 5.03796C16.684 5.03796 16.684 5.03796 16.6841 5.03796C16.6842 5.03796 16.6842 5.03796 16.6843 5.03796C16.6844 5.03796 16.6844 5.03796 16.6845 5.03796C16.6846 5.03796 16.6846 5.03796 16.6847 5.03796C16.6848 5.03796 16.6848 5.03796 16.6849 5.03796C16.685 5.03796 16.685 5.03796 16.6851 5.03796C16.6852 5.03796 16.6852 5.03796 16.6853 5.03796C16.6854 5.03796 16.6854 5.03796 16.6855 5.03796C16.6856 5.03796 16.6856 5.03796 16.6857 5.03796C16.6858 5.03796 16.6858 5.03796 16.6859 5.03796C16.686 5.03796 16.686 5.03796 16.6861 5.03796C16.6862 5.03796 16.6862 5.03796 16.6863 5.03796C16.6864 5.03796 16.6864 5.03796 16.6865 5.03796C16.6865 5.03796 16.6866 5.03796 16.6867 5.03796C16.6867 5.03796 16.6868 5.03796 16.6869 5.03796C16.6869 5.03796 16.687 5.03796 16.6871 5.03796C16.6871 5.03796 16.6872 5.03796 16.6873 5.03796C16.6873 5.03796 16.6874 5.03796 16.6875 5.03796C16.6875 5.03796 16.6876 5.03796 16.6877 5.03796C16.6877 5.03796 16.6878 5.03796 16.6879 5.03796C16.6879 5.03796 16.688 5.03796 16.6881 5.03796C16.6881 5.03796 16.6882 5.03796 16.6883 5.03796C16.6883 5.03796 16.6884 5.03796 16.6885 5.03796C16.6885 5.03796 16.6886 5.03796 16.6887 5.03796C16.6887 5.03796 16.6888 5.03796 16.6889 5.03796C16.6889 5.03796 16.689 5.03796 16.6891 5.03796C16.6891 5.03796 16.6892 5.03796 16.6893 5.03796C16.6893 5.03796 16.6894 5.03796 16.6895 5.03796C16.6895 5.03796 16.6896 5.03796 16.6896 5.03796C16.6897 5.03796 16.6898 5.03796 16.6898 5.03796C16.6899 5.03796 16.69 5.03796 16.69 5.03796C16.6901 5.03796 16.6902 5.03796 16.6902 5.03796C16.6903 5.03796 16.6904 5.03796 16.6904 5.03796C16.6905 5.03796 16.6906 5.03796 16.6906 5.03796C16.6907 5.03796 16.6908 5.03796 16.6908 5.03796C16.6909 5.03796 16.691 5.03796 16.691 5.03796C16.6911 5.03796 16.6912 5.03796 16.6912 5.03796C16.6913 5.03796 16.6914 5.03796 16.6914 5.03796C16.6915 5.03796 16.6916 5.03796 16.6916 5.03796C16.6917 5.03796 16.6918 5.03796 16.6918 5.03796C16.6919 5.03796 16.692 5.03796 16.692 5.03796C16.6921 5.03796 16.6922 5.03796 16.6922 5.03796C16.6923 5.03796 16.6924 5.03796 16.6924 5.03796C16.6925 5.03796 16.6925 5.03796 16.6926 5.03796C16.6927 5.03796 16.6927 5.03796 16.6928 5.03796C16.6929 5.03796 16.6929 5.03796 16.693 5.03796C16.6931 5.03796 16.6931 5.03796 16.6932 5.03796C16.6933 5.03796 16.6933 5.03796 16.6934 5.03796C16.6935 5.03796 16.6935 5.03796 16.6936 5.03796C16.6937 5.03796 16.6937 5.03796 16.6938 5.03796C16.6939 5.03796 16.6939 5.03796 16.694 5.03796C16.6941 5.03796 16.6941 5.03796 16.6942 5.03796C16.6943 5.03796 16.6943 5.03796 16.6944 5.03796C16.6945 5.03796 16.6945 5.03796 16.6946 5.03796C16.6947 5.03796 16.6947 5.03796 16.6948 5.03796C16.6949 5.03796 16.6949 5.03796 16.695 5.03796C16.6951 5.03796 16.6951 5.03796 16.6952 5.03796C16.6953 5.03796 16.6953 5.03796 16.6954 5.03796C16.6954 5.03796 16.6955 5.03796 16.6956 5.03796C16.6956 5.03796 16.6957 5.03796 16.6958 5.03796C16.6958 5.03796 16.6959 5.03796 16.696 5.03796C16.696 5.03796 16.6961 5.03796 16.6962 5.03796C16.6962 5.03796 16.6963 5.03796 16.6964 5.03796C16.6964 5.03796 16.6965 5.03796 16.6966 5.03796C16.6966 5.03796 16.6967 5.03796 16.6968 5.03796C16.6968 5.03796 16.6969 5.03796 16.697 5.03796C16.697 5.03796 16.6971 5.03796 16.6972 5.03796C16.6972 5.03796 16.6973 5.03796 16.6974 5.03796C16.6974 5.03796 16.6975 5.03796 16.6976 5.03796C16.6976 5.03796 16.6977 5.03796 16.6978 5.03796C16.6978 5.03796 16.6979 5.03796 16.698 5.03796C16.698 5.03796 16.6981 5.03796 16.6982 5.03796C16.6982 5.03796 16.6983 5.03796 16.6983 5.03796C16.6984 5.03796 16.6985 5.03796 16.6985 5.03796C16.6986 5.03796 16.6987 5.03796 16.6987 5.03796C16.6988 5.03796 16.6989 5.03796 16.6989 5.03796C16.699 5.03796 16.6991 5.03796 16.6991 5.03796C16.6992 5.03796 16.6993 5.03796 16.6993 5.03796C16.6994 5.03796 16.6995 5.03796 16.6995 5.03796C16.6996 5.03796 16.6997 5.03796 16.6997 5.03796C16.6998 5.03796 16.6999 5.03796 16.6999 5.03796C16.7 5.03796 16.7001 5.03796 16.7001 5.03796C16.7002 5.03796 16.7003 5.03796 16.7003 5.03796C16.7004 5.03796 16.7005 5.03796 16.7005 5.03796C16.7006 5.03796 16.7007 5.03796 16.7007 5.03796C16.7008 5.03796 16.7009 5.03796 16.7009 5.03796C16.701 5.03796 16.7011 5.03796 16.7011 5.03796C16.7012 5.03796 16.7013 5.03796 16.7013 5.03796C16.7014 5.03796 16.7014 5.03796 16.7015 5.03796C16.7016 5.03796 16.7016 5.03796 16.7017 5.03796C16.7018 5.03796 16.7018 5.03796 16.7019 5.03796C16.702 5.03796 16.702 5.03796 16.7021 5.03796C16.7022 5.03796 16.7022 5.03796 16.7023 5.03796C16.7024 5.03796 16.7024 5.03796 16.7025 5.03796C16.7026 5.03796 16.7026 5.03796 16.7027 5.03796C16.7028 5.03796 16.7028 5.03796 16.7029 5.03796C16.703 5.03796 16.703 5.03796 16.7031 5.03796C16.7032 5.03796 16.7032 5.03796 16.7033 5.03796C16.7034 5.03796 16.7034 5.03796 16.7035 5.03796C16.7036 5.03796 16.7036 5.03796 16.7037 5.03796C16.7038 5.03796 16.7038 5.03796 16.7039 5.03796C16.704 5.03796 16.704 5.03796 16.7041 5.03796C16.7042 5.03796 16.7042 5.03796 16.7043 5.03796C16.7043 5.03796 16.7044 5.03796 16.7045 5.03796C16.7045 5.03796 16.7046 5.03796 16.7047 5.03796C16.7047 5.03796 16.7048 5.03796 16.7049 5.03796C16.7049 5.03796 16.705 5.03796 16.7051 5.03796C16.7051 5.03796 16.7052 5.03796 16.7053 5.03796C16.7053 5.03796 16.7054 5.03796 16.7055 5.03796C16.7055 5.03796 16.7056 5.03796 16.7057 5.03796C16.7057 5.03796 16.7058 5.03796 16.7059 5.03796C16.7059 5.03796 16.706 5.03796 16.7061 5.03796C16.7061 5.03796 16.7062 5.03796 16.7063 5.03796C16.7063 5.03796 16.7064 5.03796 16.7065 5.03796C16.7065 5.03796 16.7066 5.03796 16.7067 5.03796C16.7067 5.03796 16.7068 5.03796 16.7069 5.03796C16.7069 5.03796 16.707 5.03796 16.7071 5.03796C16.7071 5.03796 16.7072 5.03796 16.7072 5.03796C16.7073 5.03796 16.7074 5.03796 16.7074 5.03796C16.7075 5.03796 16.7076 5.03796 16.7076 5.03796C16.7077 5.03796 16.7078 5.03796 16.7078 5.03796C16.7079 5.03796 16.708 5.03796 16.708 5.03796C16.7081 5.03796 16.7082 5.03796 16.7082 5.03796C16.7083 5.03796 16.7084 5.03796 16.7084 5.03796C16.7085 5.03796 16.7086 5.03796 16.7086 5.03796C16.7087 5.03796 16.7088 5.03796 16.7088 5.03796C16.7089 5.03796 16.709 5.03796 16.709 5.03796C16.7091 5.03796 16.7092 5.03796 16.7092 5.03796C16.7093 5.03796 16.7094 5.03796 16.7094 5.03796C16.7095 5.03796 16.7096 5.03796 16.7096 5.03796C16.7097 5.03796 16.7098 5.03796 16.7098 5.03796C16.7099 5.03796 16.71 5.03796 16.71 5.03796C16.7101 5.03796 16.7102 5.03796 16.7102 5.03796C16.7103 5.03796 16.7103 5.03796 16.7104 5.03796C16.7105 5.03796 16.7105 5.03796 16.7106 5.03796C16.7107 5.03796 16.7107 5.03796 16.7108 5.03796C16.7109 5.03796 16.7109 5.03796 16.711 5.03796C16.7111 5.03796 16.7111 5.03796 16.7112 5.03796C16.7113 5.03796 16.7113 5.03796 16.7114 5.03796C16.7115 5.03796 16.7115 5.03796 16.7116 5.03796C16.7117 5.03796 16.7117 5.03796 16.7118 5.03796C16.7119 5.03796 16.7119 5.03796 16.712 5.03796C16.7121 5.03796 16.7121 5.03796 16.7122 5.03796C16.7123 5.03796 16.7123 5.03796 16.7124 5.03796C16.7125 5.03796 16.7125 5.03796 16.7126 5.03796C16.7127 5.03796 16.7127 5.03796 16.7128 5.03796C16.7129 5.03796 16.7129 5.03796 16.713 5.03796C16.7131 5.03796 16.7131 5.03796 16.7132 5.03796C16.7132 5.03796 16.7133 5.03796 16.7134 5.03796C16.7134 5.03796 16.7135 5.03796 16.7136 5.03796C16.7136 5.03796 16.7137 5.03796 16.7138 5.03796C16.7138 5.03796 16.7139 5.03796 16.714 5.03796C16.714 5.03796 16.7141 5.03796 16.7142 5.03796C16.7142 5.03796 16.7143 5.03796 16.7144 5.03796V4.03796ZM16.6571 4.0399C16.3918 4.01649 16.1177 4.01379 15.9422 4.00441L15.8889 5.00299C16.1409 5.01645 16.3168 5.01375 16.5691 5.03602L16.6571 4.0399ZM15.9236 4.00377C12.363 3.94603 9.22007 4.54151 7.23124 5.80622L7.76784 6.65006C9.51445 5.53938 12.4247 4.94717 15.9074 5.00363L15.9236 4.00377ZM6.99954 6.22814V13.0802H7.99954V6.22814H6.99954ZM7.23859 13.5067C8.41455 14.2262 9.70795 15.2197 10.6241 16.283C11.5633 17.3731 11.9916 18.3989 11.7551 19.2369L12.7175 19.5085C13.0999 18.1538 12.3637 16.77 11.3817 15.6303C10.3767 14.4639 8.99232 13.4074 7.76049 12.6537L7.23859 13.5067ZM11.7575 19.2288C11.6049 19.7366 11.7346 20.2296 12.0765 20.5695C12.4072 20.8983 12.891 21.0422 13.3917 20.9891L13.2862 19.9947C13.0331 20.0215 12.8644 19.9427 12.7816 19.8604C12.71 19.7892 12.6653 19.6826 12.7152 19.5166L11.7575 19.2288ZM13.395 20.9887C14.6408 20.8482 15.3751 19.6172 15.4139 18.4761L14.4144 18.4421C14.3857 19.2881 13.8599 19.93 13.2829 19.995L13.395 20.9887ZM15.4138 18.4788C15.4617 17.2634 15.2344 16.0426 14.8185 14.957L13.8847 15.3147C14.2563 16.2847 14.4567 17.3708 14.4145 18.4394L15.4138 18.4788ZM14.8455 15.058C14.8421 15.0363 14.8401 15.0174 14.8392 15.0012C14.8382 14.985 14.8385 14.9729 14.8392 14.9646C14.8406 14.9468 14.843 14.9539 14.8327 14.9733C14.8273 14.9835 14.8193 14.9952 14.8085 15.0065C14.7977 15.0179 14.7869 15.0259 14.7784 15.0309C14.7615 15.0408 14.7649 15.0326 14.81 15.0288L14.7258 14.0324C14.3965 14.0602 14.1062 14.2089 13.9493 14.5047C13.8144 14.7589 13.8292 15.0328 13.8577 15.2137L14.8455 15.058ZM14.7989 15.0296C15.3459 14.9956 16.04 14.9615 16.578 14.9388L16.5357 13.9397C15.9936 13.9626 15.2925 13.997 14.7369 14.0315L14.7989 15.0296ZM16.5569 14.9392C16.8613 14.9392 17.1523 14.9273 17.4218 14.9159L17.3796 13.9168C17.109 13.9283 16.8375 13.9392 16.5569 13.9392V14.9392ZM17.4007 14.9164H17.412V13.9164H17.4007V14.9164ZM17.4367 14.9158C17.9058 14.8925 18.3574 14.8575 18.7444 14.8099L18.6223 13.8173C18.2667 13.8611 17.8407 13.8945 17.3872 13.917L17.4367 14.9158ZM18.7481 14.8094C19.2059 14.7496 19.6654 14.5922 20.0355 14.3339C20.4071 14.0746 20.7188 13.6893 20.7877 13.1818L19.7968 13.0472C19.7758 13.202 19.6768 13.3648 19.4633 13.5138C19.2484 13.6638 18.9484 13.7748 18.6186 13.8178L18.7481 14.8094ZM20.7877 13.1818C20.8576 12.6673 20.6558 12.229 20.308 11.9245C19.9756 11.6336 19.5237 11.4722 19.0552 11.4186L18.9416 12.4121C19.2719 12.4499 19.512 12.5568 19.6494 12.677C19.7713 12.7837 19.8169 12.8992 19.7968 13.0472L20.7877 13.1818ZM19.0979 11.4254C19.0382 11.4133 18.9791 11.4084 18.9543 11.4061C18.9173 11.4026 18.9145 11.4018 18.9178 11.4025L18.7189 12.3825C18.7785 12.3946 18.8376 12.3995 18.8624 12.4018C18.8995 12.4053 18.9023 12.4061 18.8989 12.4054L19.0979 11.4254ZM18.8482 12.3916C19.0586 12.3791 19.2547 12.354 19.4326 12.3314L19.3067 11.3394C19.1246 11.3625 18.9607 11.3831 18.7886 11.3934L18.8482 12.3916ZM19.4257 12.3323C19.8959 12.2793 20.3636 12.1255 20.7379 11.8673C21.1142 11.6078 21.4255 11.2188 21.4864 10.7068L20.4934 10.5887C20.4755 10.7391 20.3817 10.8982 20.1702 11.0441C19.9566 11.1914 19.6536 11.3002 19.3136 11.3386L19.4257 12.3323Z" fill="#8F95B2"/>
</svg>
