<svg width="16" height="16" viewBox="0 0 16 16" fill="none" xmlns="http://www.w3.org/2000/svg">
<g clip-path="url(#clip0_4094_12777)">
<path fill-rule="evenodd" clip-rule="evenodd" d="M2 2H0V9H2C2.55 9 3 8.55 3 8V3C3 2.45 2.55 2 2 2ZM15.99 6.38C16.07 5.8 15.55 5.36 14.84 5.33C14.59 5.32 14.32 5.3 14.03 5.28C14.05 5.28 14.08 5.27 14.1 5.27C14.8 5.17 15.44 4.78 15.51 4.2C15.57 3.62 15.05 3.23 14.34 3.16C14.09 3.14 13.82 3.12 13.55 3.1C14.02 2.95 14.39 2.68 14.42 2.17C14.46 1.59 13.63 1.14 12.92 1.08C12.65 1.06 12.41 1.04 12.19 1.03C12.16 1.03 12.13 1.03 12.1 1.03C11.87 1.01 11.67 1.01 11.48 0.999998C8.35 0.949998 5.66 1.47 4 2.51V8.51C6.14 9.8 8.76 12.1 8.21 14.02C8.03 14.61 8.52 15.07 9.19 15C10 14.91 10.56 14.09 10.59 13.22C10.63 12.22 10.44 11.21 10.09 10.31C10.05 10.06 10.1 9.81 10.46 9.78C10.95 9.75 11.57 9.72 12.05 9.7C12.31 9.7 12.56 9.69 12.8 9.68H12.81C13.22 9.66 13.61 9.63 13.94 9.59C14.64 9.5 15.29 9.12 15.37 8.54C15.45 7.96 14.93 7.57 14.22 7.49C14.17 7.48 14.11 7.48 14.06 7.47C14.23 7.46 14.39 7.44 14.55 7.42C15.27 7.34 15.92 6.96 15.99 6.38Z" fill="#8F95B2"/>
</g>
<defs>
<clipPath id="clip0_4094_12777">
<rect width="16" height="16" fill="white"/>
</clipPath>
</defs>
</svg>
